<svg width="17" height="16" viewBox="0 0 17 16" fill="none" xmlns="http://www.w3.org/2000/svg">
<g opacity="0.3">
<path d="M9.76992 1.2H1.76992C1.54901 1.2 1.36992 1.37909 1.36992 1.6V14.4C1.36992 14.6209 1.54901 14.8 1.76992 14.8H9.76992C9.99084 14.8 10.1699 14.6209 10.1699 14.4V11.2H11.3699V14.4C11.3699 15.2837 10.6536 16 9.76992 16H1.76992C0.886266 16 0.169922 15.2837 0.169922 14.4V1.6C0.169922 0.716345 0.886266 0 1.76992 0H9.76992C10.6536 0 11.3699 0.716344 11.3699 1.6V4.8H10.1699V1.6C10.1699 1.37909 9.99084 1.2 9.76992 1.2Z" fill="black"/>
<rect x="5.76953" y="7.44009" width="9.6" height="1.2" rx="0.6" fill="black"/>
<rect x="13.0186" y="4.56009" width="4.8" height="1.2" rx="0.6" transform="rotate(45 13.0186 4.56009)" fill="black"/>
<rect x="12.1699" y="10.5483" width="4.8" height="1.2" rx="0.6" transform="rotate(-45 12.1699 10.5483)" fill="black"/>
</g>
</svg>
