<svg width="13" height="16" viewBox="0 0 13 16" fill="none" xmlns="http://www.w3.org/2000/svg">
<path d="M6.08472 7.82505C7.86365 7.82505 9.30589 6.07337 9.30589 3.91255C9.30589 1.75168 8.83238 0 6.08472 0C3.33706 0 2.86346 1.75168 2.86346 3.91255C2.86346 6.07337 4.30571 7.82505 6.08472 7.82505Z" fill="#0099FF"/>
<path d="M0.000634575 13.7991C8.50169e-05 13.6673 -0.000464541 13.7619 0.000634575 13.7991V13.7991Z" fill="#0099FF"/>
<path d="M12.1688 13.9019C12.1705 13.8659 12.1694 13.6517 12.1688 13.9019V13.9019Z" fill="#0099FF"/>
<path d="M12.1618 13.6411C12.1022 9.87685 11.6105 8.80425 7.84858 8.12531C7.84858 8.12531 7.31902 8.80009 6.08474 8.80009C4.85045 8.80009 4.32081 8.12531 4.32081 8.12531C0.599894 8.79685 0.0783855 9.85353 0.0098141 13.5188C0.00419125 13.8181 0.00158555 13.8338 0.000579834 13.799C0.000808405 13.8641 0.00108259 13.9846 0.00108259 14.1945C0.00108259 14.1945 0.896716 16.0001 6.08474 16.0001C11.2727 16.0001 12.1684 14.1945 12.1684 14.1945C12.1684 14.0596 12.1685 13.9658 12.1686 13.902C12.1676 13.9235 12.1656 13.8818 12.1618 13.6411Z" fill="#0099FF"/>
</svg>
