<svg width="18" height="18" viewBox="0 0 18 18" fill="none" xmlns="http://www.w3.org/2000/svg">
<rect width="18" height="18" rx="9" fill="#FFDA54"/>
<path d="M8.22566 10.57C8.22566 10.2233 8.30233 9.93667 8.45566 9.71C8.61566 9.48333 8.84566 9.23333 9.14566 8.96C9.36566 8.76 9.52566 8.59333 9.62566 8.46C9.73233 8.32 9.78566 8.16333 9.78566 7.99C9.78566 7.74333 9.68566 7.55 9.48566 7.41C9.29233 7.26333 9.03233 7.19 8.70566 7.19C8.39233 7.19 8.11233 7.25667 7.86566 7.39C7.62566 7.51667 7.42233 7.69667 7.25566 7.93L6.04566 7.22C6.32566 6.79333 6.70233 6.46333 7.17566 6.23C7.65566 5.99667 8.22233 5.88 8.87566 5.88C9.64233 5.88 10.2557 6.04333 10.7157 6.37C11.1823 6.69667 11.4157 7.15 11.4157 7.73C11.4157 8.00333 11.369 8.24333 11.2757 8.45C11.189 8.65667 11.079 8.83333 10.9457 8.98C10.819 9.12 10.6523 9.28333 10.4457 9.47C10.199 9.69 10.019 9.87667 9.90566 10.03C9.79233 10.1767 9.73566 10.3567 9.73566 10.57H8.22566ZM8.98566 13.08C8.71233 13.08 8.48233 12.9933 8.29566 12.82C8.11566 12.64 8.02566 12.4233 8.02566 12.17C8.02566 11.9167 8.11566 11.7067 8.29566 11.54C8.47566 11.3667 8.70566 11.28 8.98566 11.28C9.26566 11.28 9.49566 11.3667 9.67566 11.54C9.85566 11.7067 9.94566 11.9167 9.94566 12.17C9.94566 12.4233 9.85233 12.64 9.66566 12.82C9.48566 12.9933 9.259 13.08 8.98566 13.08Z" fill="#212226"/>
</svg>
