<svg width="19" height="18" viewBox="0 0 19 18" fill="none" xmlns="http://www.w3.org/2000/svg">
    <path d="M0.5 9C0.5 4.02944 4.52944 0 9.5 0C14.4706 0 18.5 4.02944 18.5 9C18.5 13.9706 14.4706 18 9.5 18C4.52944 18 0.5 13.9706 0.5 9Z"
          fill="#FFDA54"/>
<!--    <path d="M10.201 8.85C10.8143 8.95 11.2843 9.18 11.611 9.54C11.9377 9.89333 12.101 10.3333 12.101 10.86C12.101 11.2667 11.9943 11.6433 11.781 11.99C11.5677 12.33 11.241 12.6033 10.801 12.81C10.3677 13.0167 9.83435 13.12 9.20102 13.12C8.70768 13.12 8.22102 13.0567 7.74102 12.93C7.26768 12.7967 6.86435 12.61 6.53102 12.37L7.16102 11.13C7.42768 11.33 7.73435 11.4867 8.08102 11.6C8.43435 11.7067 8.79435 11.76 9.16102 11.76C9.56768 11.76 9.88768 11.6833 10.121 11.53C10.3543 11.37 10.471 11.1467 10.471 10.86C10.471 10.2867 10.0343 10 9.16102 10H8.42102V8.93L9.86102 7.3H6.88102V6H11.781V7.05L10.201 8.85Z" fill="#212226"/>-->
</svg>
